<mxfile host="app.diagrams.net" agent="Mozilla/5.0 (Windows NT 10.0; Win64; x64) AppleWebKit/537.36 (KHTML, like Gecko) Chrome/132.0.0.0 Safari/537.36" version="24.8.0">
  <diagram name="第 1 页" id="wxHdL_aoK2OwXxyab2-P">
    <mxGraphModel dx="1050" dy="1691" grid="1" gridSize="10" guides="1" tooltips="1" connect="1" arrows="1" fold="1" page="1" pageScale="1" pageWidth="827" pageHeight="1169" math="0" shadow="0">
      <root>
        <mxCell id="0" />
        <mxCell id="1" parent="0" />
        <mxCell id="f6u84PACEqeu1A_250-T-9" style="edgeStyle=orthogonalEdgeStyle;rounded=0;orthogonalLoop=1;jettySize=auto;html=1;exitX=0.5;exitY=1;exitDx=0;exitDy=0;entryX=0.5;entryY=0;entryDx=0;entryDy=0;" parent="1" source="f6u84PACEqeu1A_250-T-1" target="f6u84PACEqeu1A_250-T-3" edge="1">
          <mxGeometry relative="1" as="geometry" />
        </mxCell>
        <mxCell id="f6u84PACEqeu1A_250-T-10" style="edgeStyle=orthogonalEdgeStyle;rounded=0;orthogonalLoop=1;jettySize=auto;html=1;exitX=0.5;exitY=1;exitDx=0;exitDy=0;" parent="1" source="f6u84PACEqeu1A_250-T-1" target="f6u84PACEqeu1A_250-T-8" edge="1">
          <mxGeometry relative="1" as="geometry" />
        </mxCell>
        <mxCell id="f6u84PACEqeu1A_250-T-1" value="&lt;div&gt;&lt;span style=&quot;background-color: initial;&quot;&gt;充电宝管理系统&lt;/span&gt;&lt;/div&gt;" style="rounded=0;whiteSpace=wrap;html=1;" parent="1" vertex="1">
          <mxGeometry x="363" y="-1060" width="100" height="30" as="geometry" />
        </mxCell>
        <mxCell id="f6u84PACEqeu1A_250-T-3" value="用户" style="rounded=0;whiteSpace=wrap;html=1;" parent="1" vertex="1">
          <mxGeometry x="229" y="-960" width="100" height="40" as="geometry" />
        </mxCell>
        <mxCell id="f6u84PACEqeu1A_250-T-8" value="管理员" style="rounded=0;whiteSpace=wrap;html=1;" parent="1" vertex="1">
          <mxGeometry x="499" y="-960" width="100" height="40" as="geometry" />
        </mxCell>
        <mxCell id="8pxQjRXLGJeJOuGP3MxE-3" value="登录功能" style="rounded=0;whiteSpace=wrap;html=1;textDirection=vertical-lr;" vertex="1" parent="1">
          <mxGeometry x="150" y="-880" width="30" height="80" as="geometry" />
        </mxCell>
        <mxCell id="8pxQjRXLGJeJOuGP3MxE-4" value="租借功能" style="rounded=0;whiteSpace=wrap;html=1;textDirection=vertical-lr;" vertex="1" parent="1">
          <mxGeometry x="210" y="-880" width="30" height="80" as="geometry" />
        </mxCell>
        <mxCell id="8pxQjRXLGJeJOuGP3MxE-5" value="充值功能" style="rounded=0;whiteSpace=wrap;html=1;textDirection=vertical-lr;" vertex="1" parent="1">
          <mxGeometry x="264" y="-880" width="30" height="80" as="geometry" />
        </mxCell>
        <mxCell id="8pxQjRXLGJeJOuGP3MxE-6" value="修改个人信息" style="rounded=0;whiteSpace=wrap;html=1;textDirection=vertical-lr;" vertex="1" parent="1">
          <mxGeometry x="320" y="-880" width="30" height="80" as="geometry" />
        </mxCell>
      </root>
    </mxGraphModel>
  </diagram>
</mxfile>
